<svg xmlns="http://www.w3.org/2000/svg" xmlns:xlink="http://www.w3.org/1999/xlink" width="1040" height="711.3"><rect width="1040" height="711.3" rx="5" ry="5" class="a"/><svg y="0%" x="0%"><circle cx="20" cy="20" r="6" fill="#ff5f58"/><circle cx="40" cy="20" r="6" fill="#ffbd2e"/><circle cx="60" cy="20" r="6" fill="#18c132"/></svg><svg height="651.3" viewBox="0 0 100 65.13" width="1000" x="15" xmlns="http://www.w3.org/2000/svg" xmlns:xlink="http://www.w3.org/1999/xlink" y="50"><style>@keyframes k{0%{transform:translateX(0)}.71%{transform:translateX(-100px)}4.29%{transform:translateX(-200px)}7.5%{transform:translateX(-300px)}10%{transform:translateX(-400px)}14.29%{transform:translateX(-500px)}17.86%{transform:translateX(-600px)}25%{transform:translateX(-700px)}35.71%{transform:translateX(-800px)}46.43%{transform:translateX(-900px)}57.14%{transform:translateX(-1000px)}71.43%{transform:translateX(-1100px)}82.14%{transform:translateX(-1200px)}to{transform:translateX(-1300px)}}.a{fill:#282d35}.f,.g,.h,.i{white-space:pre}.f{fill:#66c2cd;font-weight:700}.g,.h,.i{fill:#b9c0cb}.h,.i{fill:#a8cc8c;font-weight:700}.i{fill:#b9bfca}</style><g font-family="Monaco,Consolas,Menlo,'Bitstream Vera Sans Mono','Powerline Symbols',monospace" font-size="1.67"><defs><symbol id="1"><text y="1.67" class="f">#</text><text x="2.004" y="1.67" class="f">diffnotes</text><text x="12.024" y="1.67" class="f">usage</text><text x="18.036" y="1.67" class="f">tour</text></symbol><symbol id="2"><text y="1.67" class="g">Use</text><text x="4.008" y="1.67" class="g">this</text><text x="9.018" y="1.67" class="g">tool</text><text x="14.028" y="1.67" class="g">when</text><text x="19.038" y="1.67" class="g">you</text><text x="23.046" y="1.67" class="g">want</text><text x="28.056" y="1.67" class="g">to</text><text x="31.062" y="1.67" class="g">review</text><text x="38.076" y="1.67" class="g">local</text><text x="44.088" y="1.67" class="g">git</text><text x="48.096" y="1.67" class="g">changes,</text><text x="57.114" y="1.67" class="g">leave</text><text x="63.126" y="1.67" class="g">line</text><text x="68.136" y="1.67" class="g">comments,</text></symbol><symbol id="3"><text y="1.67" class="g">and</text><text x="4.008" y="1.67" class="g">copy</text><text x="9.018" y="1.67" class="g">a</text><text x="11.022" y="1.67" class="g">structured</text><text x="22.044" y="1.67" class="g">prompt</text><text x="29.058" y="1.67" class="g">for</text><text x="33.066" y="1.67" class="g">an</text><text x="36.072" y="1.67" class="g">LLM</text><text x="40.08" y="1.67" class="g">coding</text><text x="47.094" y="1.67" class="g">agent.</text></symbol><symbol id="4"><text y="1.67" class="g">This</text><text x="5.01" y="1.67" class="g">recording</text><text x="15.03" y="1.67" class="g">uses</text><text x="20.04" y="1.67" class="g">the</text><text x="24.048" y="1.67" class="g">diffnotes</text><text x="34.068" y="1.67" class="g">repository</text><text x="45.09" y="1.67" class="g">itself</text><text x="52.104" y="1.67" class="g">as</text><text x="55.11" y="1.67" class="g">the</text><text x="59.118" y="1.67" class="g">example</text><text x="67.134" y="1.67" class="g">repo.</text></symbol><symbol id="5"><text y="1.67" class="h">$</text><text x="2.004" y="1.67" class="h">git</text><text x="6.012" y="1.67" class="h">clone</text><text x="12.024" y="1.67" class="h">git@github.com:alexfedosov/diffnotes.git</text></symbol><symbol id="6"><text y="1.67" class="g">Cloning</text><text x="8.016" y="1.67" class="g">into</text><text x="13.026" y="1.67" class="g">&apos;diffnotes&apos;...</text></symbol><symbol id="7"><text y="1.67" class="h">$</text><text x="2.004" y="1.67" class="h">cd</text><text x="5.01" y="1.67" class="h">diffnotes</text></symbol><symbol id="8"><text y="1.67" class="h">$</text><text x="2.004" y="1.67" class="h">git</text><text x="6.012" y="1.67" class="h">status</text><text x="13.026" y="1.67" class="h">--short</text></symbol><symbol id="9"><text x="1.002" y="1.67" class="g">M</text><text x="3.006" y="1.67" class="g">README.md</text></symbol><symbol id="10"><text x="1.002" y="1.67" class="g">M</text><text x="3.006" y="1.67" class="g">internal/clipboard/clipboard.go</text></symbol><symbol id="11"><text x="1.002" y="1.67" class="g">diffnotes</text><text x="12.024" y="1.67" class="g">repo:diffnotes</text><text x="28.056" y="1.67" class="g">source:Unstaged</text><text x="44.088" y="1.67" class="g">changes</text><text x="53.106" y="1.67" class="g">comments:0</text></symbol><symbol id="12"><text y="1.67" class="g">--------------------------|</text><text x="29.058" y="1.67" class="g">@@</text><text x="32.064" y="1.67" class="g">-65,7</text><text x="38.076" y="1.67" class="g">+65,9</text><text x="44.088" y="1.67" class="g">@@</text><text x="47.094" y="1.67" class="g">Clipboard</text><text x="57.114" y="1.67" class="g">Support</text></symbol><symbol id="13"><text x="26.052" y="1.67" class="g">|</text><text x="30.06" y="1.67" class="g">71</text><text x="36.072" y="1.67" class="g">71</text><text x="41.082" y="1.67" class="g">-</text><text x="43.086" y="1.67" class="g">Linux</text><text x="49.098" y="1.67" class="g">X11:</text><text x="54.108" y="1.67" class="g">`xclip`</text><text x="62.124" y="1.67" class="g">or</text><text x="65.13" y="1.67" class="g">`xsel`</text></symbol><symbol id="14"><text x="26.052" y="1.67" class="g">|</text><text x="30.06" y="1.67" class="g">72</text><text x="36.072" y="1.67" class="g">72</text><text x="41.082" y="1.67" class="g">-</text><text x="43.086" y="1.67" class="g">Windows:</text><text x="52.104" y="1.67" class="g">`clip`</text></symbol><symbol id="15"><text x="26.052" y="1.67" class="g">|</text><text x="36.072" y="1.67" class="g">73</text><text x="39.078" y="1.67" class="g">+</text></symbol><symbol id="16"><text x="1.002" y="1.67" class="g">sequences...</text></symbol><symbol id="17"><text x="2.004" y="1.67" class="g">SOURCES</text><text x="26.052" y="1.67" class="g">|</text><text x="31.062" y="1.67" class="g">README.md</text><text x="42.084" y="1.67" class="g">(modified)</text></symbol><symbol id="18"><text x="26.052" y="1.67" class="g">|</text><text x="28.056" y="1.67" class="g">&gt;</text><text x="36.072" y="1.67" class="g">74</text><text x="39.078" y="1.67" class="g">+</text><text x="41.082" y="1.67" class="g">When</text><text x="46.092" y="1.67" class="g">running</text><text x="54.108" y="1.67" class="g">over</text><text x="59.118" y="1.67" class="g">SSH,</text><text x="64.128" y="1.67" class="g">`diffnotes`</text><text x="76.152" y="1.67" class="g">prefers</text><text x="84.168" y="1.67" class="g">OSC</text><text x="88.176" y="1.67" class="g">52</text><text x="91.182" y="1.67" class="g">clipboard</text></symbol><symbol id="19"><text x="26.052" y="1.67" class="g">|</text><text x="36.072" y="1.67" class="g">comment:</text><text x="45.09" y="1.67" class="g">Make</text><text x="50.1" y="1.67" class="g">sure</text><text x="55.11" y="1.67" class="g">this</text><text x="60.12" y="1.67" class="g">is</text><text x="63.126" y="1.67" class="g">explicit</text><text x="72.144" y="1.67" class="g">because</text><text x="80.16" y="1.67" class="g">native</text><text x="87.174" y="1.67" class="g">Linux</text><text x="93.186" y="1.67" class="g">clipboa</text></symbol><symbol id="20"><text y="1.67" class="g">rd</text></symbol><symbol id="21"><text x="26.052" y="1.67" class="g">|</text><text x="39.078" y="1.67" class="g">commands</text><text x="48.096" y="1.67" class="g">would</text><text x="54.108" y="1.67" class="g">copy</text><text x="59.118" y="1.67" class="g">on</text><text x="62.124" y="1.67" class="g">the</text><text x="66.132" y="1.67" class="g">remote</text><text x="73.146" y="1.67" class="g">host,</text><text x="79.158" y="1.67" class="g">not</text><text x="83.166" y="1.67" class="g">the</text><text x="87.174" y="1.67" class="g">developer</text><text x="97.194" y="1.67" class="g">lap</text></symbol><symbol id="22"><text y="1.67" class="g">top.</text></symbol><symbol id="23"><text x="26.052" y="1.67" class="g">|</text><text x="30.06" y="1.67" class="g">19</text><text x="36.072" y="1.67" class="g">19</text></symbol><symbol id="24"><text x="26.052" y="1.67" class="g">|</text><text x="36.072" y="1.67" class="g">20</text><text x="39.078" y="1.67" class="g">+</text><text x="41.082" y="1.67" class="g">const</text><text x="47.094" y="1.67" class="g">clipboardModeEnv</text><text x="64.128" y="1.67" class="g">=</text><text x="66.132" y="1.67" class="g">&quot;DIFFNOTES_CLIPBOARD&quot;</text></symbol><symbol id="25"><text x="26.052" y="1.67" class="g">|</text><text x="36.072" y="1.67" class="g">21</text><text x="39.078" y="1.67" class="g">+</text></symbol><symbol id="26"><text x="26.052" y="1.67" class="g">|</text><text x="28.056" y="1.67" class="g">&gt;</text><text x="36.072" y="1.67" class="g">22</text><text x="39.078" y="1.67" class="g">+</text><text x="41.082" y="1.67" class="g">func</text><text x="46.092" y="1.67" class="g">shouldPreferOSC52()</text><text x="66.132" y="1.67" class="g">bool</text><text x="71.142" y="1.67" class="g">{</text></symbol><symbol id="27"><text x="26.052" y="1.67" class="g">|</text><text x="36.072" y="1.67" class="g">comment:</text><text x="45.09" y="1.67" class="g">Good</text><text x="50.1" y="1.67" class="g">default</text><text x="58.116" y="1.67" class="g">for</text><text x="62.124" y="1.67" class="g">SSH.</text><text x="67.134" y="1.67" class="g">Keep</text><text x="72.144" y="1.67" class="g">the</text><text x="76.152" y="1.67" class="g">explicit</text><text x="85.17" y="1.67" class="g">native</text><text x="92.184" y="1.67" class="g">override</text></symbol><symbol id="28"><text x="1.002" y="1.67" class="g">so</text><text x="4.008" y="1.67" class="g">people</text></symbol><symbol id="29"><text x="26.052" y="1.67" class="g">|</text><text x="39.078" y="1.67" class="g">can</text><text x="43.086" y="1.67" class="g">still</text><text x="49.098" y="1.67" class="g">use</text><text x="53.106" y="1.67" class="g">remote</text><text x="60.12" y="1.67" class="g">clipboard</text><text x="70.14" y="1.67" class="g">tools</text><text x="76.152" y="1.67" class="g">when</text><text x="81.162" y="1.67" class="g">they</text><text x="86.172" y="1.67" class="g">really</text><text x="93.186" y="1.67" class="g">want</text><text x="98.196" y="1.67" class="g">th</text></symbol><symbol id="30"><text y="1.67" class="g">em.</text></symbol><symbol id="31"><text y="1.67" class="h">Press</text><text x="6.012" y="1.67" class="h">c</text><text x="8.016" y="1.67" class="h">to</text><text x="11.022" y="1.67" class="h">copy</text><text x="16.032" y="1.67" class="h">all</text><text x="20.04" y="1.67" class="h">comments.</text></symbol><symbol id="32"><text y="1.67" class="g">On</text><text x="3.006" y="1.67" class="g">local</text><text x="9.018" y="1.67" class="g">macOS</text><text x="15.03" y="1.67" class="g">this</text><text x="20.04" y="1.67" class="g">uses</text><text x="25.05" y="1.67" class="g">`pbcopy`.</text></symbol><symbol id="33"><text y="1.67" class="g">On</text><text x="3.006" y="1.67" class="g">local</text><text x="9.018" y="1.67" class="g">Linux</text><text x="15.03" y="1.67" class="g">this</text><text x="20.04" y="1.67" class="g">uses</text><text x="25.05" y="1.67" class="g">`wl-copy`,</text><text x="36.072" y="1.67" class="g">`xclip`,</text><text x="45.09" y="1.67" class="g">or</text><text x="48.096" y="1.67" class="g">`xsel`.</text></symbol><symbol id="34"><text y="1.67" class="g">Over</text><text x="5.01" y="1.67" class="g">SSH</text><text x="9.018" y="1.67" class="g">it</text><text x="12.024" y="1.67" class="g">prefers</text><text x="20.04" y="1.67" class="g">OSC</text><text x="24.048" y="1.67" class="g">52,</text><text x="28.056" y="1.67" class="g">so</text><text x="31.062" y="1.67" class="g">the</text><text x="35.07" y="1.67" class="g">text</text><text x="40.08" y="1.67" class="g">lands</text><text x="46.092" y="1.67" class="g">in</text><text x="49.098" y="1.67" class="g">your</text><text x="54.108" y="1.67" class="g">local</text><text x="60.12" y="1.67" class="g">terminal</text><text x="69.138" y="1.67" class="g">clipboard.</text></symbol><symbol id="35"><text x="1.002" y="1.67" class="g">status:</text><text x="9.018" y="1.67" class="g">copied</text><text x="16.032" y="1.67" class="g">2</text><text x="18.036" y="1.67" class="g">comments</text><text x="27.054" y="1.67" class="g">using</text><text x="33.066" y="1.67" class="g">OSC</text><text x="37.074" y="1.67" class="g">52</text><text x="40.08" y="1.67" class="g">terminal</text><text x="49.098" y="1.67" class="g">clipboard</text></symbol><symbol id="36"><text y="1.67" class="g">The</text><text x="4.008" y="1.67" class="g">clipboard</text><text x="14.028" y="1.67" class="g">text</text><text x="19.038" y="1.67" class="g">is</text><text x="22.044" y="1.67" class="g">structured</text><text x="33.066" y="1.67" class="g">for</text><text x="37.074" y="1.67" class="g">a</text><text x="39.078" y="1.67" class="g">coding</text><text x="46.092" y="1.67" class="g">agent:</text></symbol><symbol id="37"><text y="1.67" class="i">Review</text><text x="7.014" y="1.67" class="i">comments</text><text x="16.032" y="1.67" class="i">for</text><text x="20.04" y="1.67" class="i">coding</text><text x="27.054" y="1.67" class="i">agent</text></symbol><symbol id="38"><text y="1.67" class="g">Source:</text><text x="8.016" y="1.67" class="g">Unstaged</text><text x="17.034" y="1.67" class="g">changes</text><text x="25.05" y="1.67" class="g">(2</text><text x="28.056" y="1.67" class="g">files)</text></symbol><symbol id="39"><text y="1.67" class="g">-</text><text x="2.004" y="1.67" class="g">README.md:74</text><text x="15.03" y="1.67" class="g">[new]</text></symbol><symbol id="40"><text x="2.004" y="1.67" class="g">Message:</text><text x="11.022" y="1.67" class="g">Make</text><text x="16.032" y="1.67" class="g">sure</text><text x="21.042" y="1.67" class="g">this</text><text x="26.052" y="1.67" class="g">is</text><text x="29.058" y="1.67" class="g">explicit</text><text x="38.076" y="1.67" class="g">because</text><text x="46.092" y="1.67" class="g">native</text><text x="53.106" y="1.67" class="g">Linux</text><text x="59.118" y="1.67" class="g">clipboard</text><text x="69.138" y="1.67" class="g">commands</text><text x="78.156" y="1.67" class="g">would</text><text x="84.168" y="1.67" class="g">copy</text><text x="89.178" y="1.67" class="g">on</text><text x="92.184" y="1.67" class="g">the</text><text x="96.192" y="1.67" class="g">remo</text></symbol><symbol id="41"><text y="1.67" class="g">te</text><text x="3.006" y="1.67" class="g">host,</text><text x="9.018" y="1.67" class="g">not</text><text x="13.026" y="1.67" class="g">the</text><text x="17.034" y="1.67" class="g">developer</text><text x="27.054" y="1.67" class="g">laptop.</text></symbol><symbol id="42"><text x="2.004" y="1.67" class="g">Code:</text><text x="8.016" y="1.67" class="g">When</text><text x="13.026" y="1.67" class="g">running</text><text x="21.042" y="1.67" class="g">over</text><text x="26.052" y="1.67" class="g">SSH,</text><text x="31.062" y="1.67" class="g">`diffnotes`</text><text x="43.086" y="1.67" class="g">prefers</text><text x="51.102" y="1.67" class="g">OSC</text><text x="55.11" y="1.67" class="g">52</text><text x="58.116" y="1.67" class="g">clipboard</text><text x="68.136" y="1.67" class="g">sequences...</text></symbol><symbol id="43"><text y="1.67" class="g">-</text><text x="2.004" y="1.67" class="g">internal/clipboard/clipboard.go:22</text><text x="37.074" y="1.67" class="g">[new]</text></symbol><symbol id="44"><text x="2.004" y="1.67" class="g">Message:</text><text x="11.022" y="1.67" class="g">Good</text><text x="16.032" y="1.67" class="g">default</text><text x="24.048" y="1.67" class="g">for</text><text x="28.056" y="1.67" class="g">SSH.</text><text x="33.066" y="1.67" class="g">Keep</text><text x="38.076" y="1.67" class="g">the</text><text x="42.084" y="1.67" class="g">explicit</text><text x="51.102" y="1.67" class="g">native</text><text x="58.116" y="1.67" class="g">override</text><text x="67.134" y="1.67" class="g">so</text><text x="70.14" y="1.67" class="g">people</text><text x="77.154" y="1.67" class="g">can</text><text x="81.162" y="1.67" class="g">still</text><text x="87.174" y="1.67" class="g">use</text><text x="91.182" y="1.67" class="g">remote</text><text x="98.196" y="1.67" class="g">cl</text></symbol><symbol id="45"><text y="1.67" class="g">ipboard</text><text x="8.016" y="1.67" class="g">tools</text><text x="14.028" y="1.67" class="g">when</text><text x="19.038" y="1.67" class="g">they</text><text x="24.048" y="1.67" class="g">really</text><text x="31.062" y="1.67" class="g">want</text><text x="36.072" y="1.67" class="g">them.</text></symbol><symbol id="46"><text x="2.004" y="1.67" class="g">Code:</text><text x="8.016" y="1.67" class="g">func</text><text x="13.026" y="1.67" class="g">shouldPreferOSC52()</text><text x="33.066" y="1.67" class="g">bool</text><text x="38.076" y="1.67" class="g">{</text></symbol><symbol id="a"><path fill="transparent" d="M0 0h100v31H0z"/></symbol></defs><path class="a" d="M0 0h100v65.13H0z"/><g style="animation-duration:28s;animation-iteration-count:infinite;animation-name:k;animation-timing-function:steps(1,end)"><svg width="1400"><svg><use xlink:href="#a"/></svg><svg x="100"><use xlink:href="#a"/><use xlink:href="#1"/><use xlink:href="#2" y="4.342"/><use xlink:href="#3" y="6.513"/><use xlink:href="#4" y="10.855"/></svg><svg x="200"><use xlink:href="#a"/><use xlink:href="#1"/><use xlink:href="#2" y="4.342"/><use xlink:href="#3" y="6.513"/><use xlink:href="#4" y="10.855"/><use xlink:href="#5" y="15.197"/><use xlink:href="#6" y="17.368"/></svg><svg x="300"><use xlink:href="#a"/><use xlink:href="#1"/><use xlink:href="#2" y="4.342"/><use xlink:href="#3" y="6.513"/><use xlink:href="#4" y="10.855"/><use xlink:href="#5" y="15.197"/><use xlink:href="#6" y="17.368"/><use xlink:href="#7" y="19.539"/></svg><svg x="400"><use xlink:href="#a"/><use xlink:href="#1"/><use xlink:href="#2" y="4.342"/><use xlink:href="#3" y="6.513"/><use xlink:href="#4" y="10.855"/><use xlink:href="#5" y="15.197"/><use xlink:href="#6" y="17.368"/><use xlink:href="#7" y="19.539"/><use xlink:href="#8" y="21.71"/><use xlink:href="#9" y="23.881"/><use xlink:href="#10" y="26.052"/></svg><svg x="500"><use xlink:href="#a"/><use xlink:href="#1"/><use xlink:href="#2" y="4.342"/><use xlink:href="#3" y="6.513"/><use xlink:href="#4" y="10.855"/><use xlink:href="#5" y="15.197"/><use xlink:href="#6" y="17.368"/><use xlink:href="#7" y="19.539"/><use xlink:href="#8" y="21.71"/><use xlink:href="#9" y="23.881"/><use xlink:href="#10" y="26.052"/><text y="32.064" class="g">There</text><text x="6.012" y="32.064" class="g">are</text><text x="10.02" y="32.064" class="g">unstaged</text><text x="19.038" y="32.064" class="g">changes.</text><text x="28.056" y="32.064" class="g">Open</text><text x="33.066" y="32.064" class="g">diffnotes</text><text x="43.086" y="32.064" class="g">at</text><text x="46.092" y="32.064" class="g">the</text><text x="50.1" y="32.064" class="g">repo</text><text x="55.11" y="32.064" class="g">root:</text><text y="36.406" class="h">$</text><text x="2.004" y="36.406" class="h">diffnotes</text><text x="12.024" y="36.406" class="h">--repo</text><text x="19.038" y="36.406" class="h">.</text></svg><svg x="600"><use xlink:href="#a"/><use xlink:href="#11"/><text y="3.841" class="g">&gt;</text><text x="2.004" y="3.841" class="g">SOURCES</text><text x="26.052" y="3.841" class="g">|</text><text x="31.062" y="3.841" class="g">README.md</text><text x="42.084" y="3.841" class="g">(modified)</text><use xlink:href="#12" y="4.342"/><text y="8.183" class="g">*</text><text x="2.004" y="8.183" class="g">Unstaged</text><text x="11.022" y="8.183" class="g">changes</text><text x="20.04" y="8.183" class="g">2</text><text x="22.044" y="8.183" class="g">files|</text><text x="31.062" y="8.183" class="g">65</text><text x="37.074" y="8.183" class="g">65</text><text x="42.084" y="8.183" class="g">##</text><text x="45.09" y="8.183" class="g">Clipboard</text><text x="55.11" y="8.183" class="g">Support</text><text x="2.004" y="10.354" class="g">2898ae7</text><text x="10.02" y="10.354" class="g">Prefer</text><text x="17.034" y="10.354" class="g">OSC52</text><text x="23.046" y="10.354" class="g">cl&gt;|</text><text x="30.06" y="10.354" class="g">66</text><text x="36.072" y="10.354" class="g">66</text><text x="2.004" y="12.525" class="g">e114520</text><text x="10.02" y="12.525" class="g">Make</text><text x="15.03" y="12.525" class="g">manual</text><text x="22.044" y="12.525" class="g">rel&gt;|</text><text x="30.06" y="12.525" class="g">67</text><text x="36.072" y="12.525" class="g">67</text><text x="41.082" y="12.525" class="g">Clipboard</text><text x="51.102" y="12.525" class="g">copy</text><text x="56.112" y="12.525" class="g">uses</text><text x="61.122" y="12.525" class="g">the</text><text x="65.13" y="12.525" class="g">native</text><text x="72.144" y="12.525" class="g">command</text><text x="80.16" y="12.525" class="g">available</text><text x="90.18" y="12.525" class="g">on</text><text x="93.186" y="12.525" class="g">the</text><text x="97.194" y="12.525" class="g">cur</text><text y="14.696" class="g">rent</text><text x="5.01" y="14.696" class="g">platform:</text><text x="2.004" y="16.867" class="g">f67015f</text><text x="10.02" y="16.867" class="g">Fix</text><text x="14.028" y="16.867" class="g">manual</text><text x="21.042" y="16.867" class="g">rele&gt;|</text><text x="30.06" y="16.867" class="g">68</text><text x="36.072" y="16.867" class="g">68</text><text x="2.004" y="19.038" class="g">895c0b2</text><text x="10.02" y="19.038" class="g">Merge</text><text x="16.032" y="19.038" class="g">remote</text><text x="23.046" y="19.038" class="g">ma&gt;|</text><text x="30.06" y="19.038" class="g">69</text><text x="36.072" y="19.038" class="g">69</text><text x="41.082" y="19.038" class="g">-</text><text x="43.086" y="19.038" class="g">macOS:</text><text x="50.1" y="19.038" class="g">`pbcopy`</text><text x="2.004" y="21.209" class="g">8e02cac</text><text x="10.02" y="21.209" class="g">Add</text><text x="14.028" y="21.209" class="g">CI</text><text x="17.034" y="21.209" class="g">and</text><text x="21.042" y="21.209" class="g">rele&gt;|</text><text x="30.06" y="21.209" class="g">70</text><text x="36.072" y="21.209" class="g">70</text><text x="41.082" y="21.209" class="g">-</text><text x="43.086" y="21.209" class="g">Linux</text><text x="49.098" y="21.209" class="g">Wayland:</text><text x="58.116" y="21.209" class="g">`wl-copy`</text><use xlink:href="#13" y="21.71"/><use xlink:href="#14" y="23.881"/><use xlink:href="#15" y="26.052"/><text x="26.052" y="29.893" class="g">|</text><text x="36.072" y="29.893" class="g">74</text><text x="39.078" y="29.893" class="g">+</text><text x="41.082" y="29.893" class="g">When</text><text x="46.092" y="29.893" class="g">running</text><text x="54.108" y="29.893" class="g">over</text><text x="59.118" y="29.893" class="g">SSH,</text><text x="64.128" y="29.893" class="g">`diffnotes`</text><text x="76.152" y="29.893" class="g">prefers</text><text x="84.168" y="29.893" class="g">OSC</text><text x="88.176" y="29.893" class="g">52</text><text x="91.182" y="29.893" class="g">clipboard</text><use xlink:href="#16" y="30.394"/><text x="1.002" y="36.406" class="g">loaded</text><text x="8.016" y="36.406" class="g">Unstaged</text><text x="17.034" y="36.406" class="g">changes</text><text x="25.05" y="36.406" class="g">|</text><text x="28.056" y="36.406" class="g">tab</text><text x="32.064" y="36.406" class="g">focus</text><text x="39.078" y="36.406" class="g">j/k</text><text x="43.086" y="36.406" class="g">move</text><text x="49.098" y="36.406" class="g">enter</text><text x="55.11" y="36.406" class="g">open/comment</text><text x="69.138" y="36.406" class="g">a/e</text><text x="73.146" y="36.406" class="g">edit</text><text x="79.158" y="36.406" class="g">d</text><text x="81.162" y="36.406" class="g">delete</text><text x="89.178" y="36.406" class="g">z</text><text x="91.182" y="36.406" class="g">fold-comm</text><text y="38.577" class="g">ents</text><text x="6.012" y="38.577" class="g">c</text><text x="8.016" y="38.577" class="g">copy</text><text x="14.028" y="38.577" class="g">r</text><text x="16.032" y="38.577" class="g">reload</text><text x="24.048" y="38.577" class="g">q</text><text x="26.052" y="38.577" class="g">quit</text></svg><svg x="700"><use xlink:href="#a"/><text y="1.67" class="h">Keys:</text><text x="6.012" y="1.67" class="h">f</text><text x="8.016" y="1.67" class="h">j</text><text x="10.02" y="1.67" class="h">j</text><text x="12.024" y="1.67" class="h">j</text><text x="14.028" y="1.67" class="h">j</text><text x="16.032" y="1.67" class="h">j</text><text x="18.036" y="1.67" class="h">a</text><text y="6.012" class="g">Move</text><text x="5.01" y="6.012" class="g">focus</text><text x="11.022" y="6.012" class="g">to</text><text x="14.028" y="6.012" class="g">the</text><text x="18.036" y="6.012" class="g">diff,</text><text x="24.048" y="6.012" class="g">move</text><text x="29.058" y="6.012" class="g">to</text><text x="32.064" y="6.012" class="g">the</text><text x="36.072" y="6.012" class="g">SSH</text><text x="40.08" y="6.012" class="g">clipboard</text><text x="50.1" y="6.012" class="g">line,</text><text x="56.112" y="6.012" class="g">then</text><text x="61.122" y="6.012" class="g">press</text><text x="67.134" y="6.012" class="g">`a`.</text><text y="8.183" class="g">The</text><text x="4.008" y="8.183" class="g">comment</text><text x="12.024" y="8.183" class="g">editor</text><text x="19.038" y="8.183" class="g">appears</text><text x="27.054" y="8.183" class="g">inline</text><text x="34.068" y="8.183" class="g">under</text><text x="40.08" y="8.183" class="g">the</text><text x="44.088" y="8.183" class="g">selected</text><text x="53.106" y="8.183" class="g">source</text><text x="60.12" y="8.183" class="g">line.</text><use xlink:href="#11" y="10.855"/><use xlink:href="#17" y="13.026"/><use xlink:href="#12" y="15.197"/><text y="19.038" class="g">*</text><text x="2.004" y="19.038" class="g">Unstaged</text><text x="11.022" y="19.038" class="g">changes</text><text x="20.04" y="19.038" class="g">2</text><text x="22.044" y="19.038" class="g">files|</text><text x="31.062" y="19.038" class="g">69</text><text x="37.074" y="19.038" class="g">69</text><text x="42.084" y="19.038" class="g">-</text><text x="44.088" y="19.038" class="g">macOS:</text><text x="51.102" y="19.038" class="g">`pbcopy`</text><text x="26.052" y="21.209" class="g">|</text><text x="30.06" y="21.209" class="g">70</text><text x="36.072" y="21.209" class="g">70</text><text x="41.082" y="21.209" class="g">-</text><text x="43.086" y="21.209" class="g">Linux</text><text x="49.098" y="21.209" class="g">Wayland:</text><text x="58.116" y="21.209" class="g">`wl-copy`</text><use xlink:href="#13" y="21.71"/><use xlink:href="#14" y="23.881"/><use xlink:href="#15" y="26.052"/><use xlink:href="#18" y="28.223"/><use xlink:href="#16" y="30.394"/><text x="26.052" y="34.235" class="g">|</text><text x="34.068" y="34.235" class="g">+</text><text x="36.072" y="34.235" class="g">add</text><text x="40.08" y="34.235" class="g">comment:</text><text x="49.098" y="34.235" class="g">Make</text><text x="54.108" y="34.235" class="g">sure</text><text x="59.118" y="34.235" class="g">this</text><text x="64.128" y="34.235" class="g">is</text><text x="67.134" y="34.235" class="g">explicit</text><text x="76.152" y="34.235" class="g">because</text><text x="84.168" y="34.235" class="g">native</text><text x="91.182" y="34.235" class="g">Linux</text><text x="97.194" y="34.235" class="g">cli</text><text y="36.406" class="g">pboard</text><text x="26.052" y="38.577" class="g">|</text><text x="36.072" y="38.577" class="g">commands</text><text x="45.09" y="38.577" class="g">would</text><text x="51.102" y="38.577" class="g">copy</text><text x="56.112" y="38.577" class="g">on</text><text x="59.118" y="38.577" class="g">the</text><text x="63.126" y="38.577" class="g">remote</text><text x="70.14" y="38.577" class="g">host,</text><text x="76.152" y="38.577" class="g">not</text><text x="80.16" y="38.577" class="g">the</text><text x="84.168" y="38.577" class="g">developer</text><text x="94.188" y="38.577" class="g">laptop</text><text y="40.748" class="g">.</text><text x="1.002" y="45.09" class="g">editing</text><text x="9.018" y="45.09" class="g">comment</text><text x="17.034" y="45.09" class="g">|</text><text x="20.04" y="45.09" class="g">enter</text><text x="26.052" y="45.09" class="g">save</text><text x="32.064" y="45.09" class="g">esc</text><text x="36.072" y="45.09" class="g">cancel</text></svg><svg x="800"><use xlink:href="#a"/><text y="1.67" class="h">Press</text><text x="6.012" y="1.67" class="h">Enter</text><text x="12.024" y="1.67" class="h">to</text><text x="15.03" y="1.67" class="h">save.</text><text x="1.002" y="6.012" class="g">diffnotes</text><text x="12.024" y="6.012" class="g">repo:diffnotes</text><text x="28.056" y="6.012" class="g">source:Unstaged</text><text x="44.088" y="6.012" class="g">changes</text><text x="53.106" y="6.012" class="g">comments:1</text><use xlink:href="#17" y="6.513"/><use xlink:href="#12" y="8.684"/><text y="12.525" class="g">*</text><text x="2.004" y="12.525" class="g">Unstaged</text><text x="11.022" y="12.525" class="g">changes</text><text x="20.04" y="12.525" class="g">2</text><text x="22.044" y="12.525" class="g">files|</text><text x="31.062" y="12.525" class="g">70</text><text x="37.074" y="12.525" class="g">70</text><text x="42.084" y="12.525" class="g">-</text><text x="44.088" y="12.525" class="g">Linux</text><text x="50.1" y="12.525" class="g">Wayland:</text><text x="59.118" y="12.525" class="g">`wl-copy`</text><use xlink:href="#13" y="13.026"/><use xlink:href="#14" y="15.197"/><use xlink:href="#15" y="17.368"/><use xlink:href="#18" y="19.539"/><use xlink:href="#16" y="21.71"/><use xlink:href="#19" y="23.881"/><use xlink:href="#20" y="26.052"/><use xlink:href="#21" y="28.223"/><use xlink:href="#22" y="30.394"/><text x="1.002" y="36.406" class="g">saved</text><text x="7.014" y="36.406" class="g">comment</text><text x="15.03" y="36.406" class="g">for</text><text x="19.038" y="36.406" class="g">README.md:74</text><text x="32.064" y="36.406" class="g">|</text><text x="35.07" y="36.406" class="g">tab</text><text x="39.078" y="36.406" class="g">focus</text><text x="46.092" y="36.406" class="g">j/k</text><text x="50.1" y="36.406" class="g">move</text><text x="56.112" y="36.406" class="g">enter</text><text x="62.124" y="36.406" class="g">open/comment</text><text x="76.152" y="36.406" class="g">a/e</text><text x="80.16" y="36.406" class="g">edit</text><text x="86.172" y="36.406" class="g">d</text><text x="88.176" y="36.406" class="g">delete</text><text x="96.192" y="36.406" class="g">z</text><text x="98.196" y="36.406" class="g">fo</text><text y="38.577" class="g">ld-comments</text><text x="13.026" y="38.577" class="g">c</text><text x="15.03" y="38.577" class="g">copy</text><text x="21.042" y="38.577" class="g">r</text><text x="23.046" y="38.577" class="g">reload</text><text x="31.062" y="38.577" class="g">q</text><text x="33.066" y="38.577" class="g">quit</text></svg><svg x="900"><use xlink:href="#a"/><text y="1.67" class="h">Add</text><text x="4.008" y="1.67" class="h">another</text><text x="12.024" y="1.67" class="h">comment</text><text x="20.04" y="1.67" class="h">in</text><text x="23.046" y="1.67" class="h">internal/clipboard/clipboard.go.</text><text x="1.002" y="6.012" class="g">diffnotes</text><text x="12.024" y="6.012" class="g">repo:diffnotes</text><text x="28.056" y="6.012" class="g">source:Unstaged</text><text x="44.088" y="6.012" class="g">changes</text><text x="53.106" y="6.012" class="g">comments:2</text><text x="2.004" y="8.183" class="g">SOURCES</text><text x="26.052" y="8.183" class="g">|</text><text x="31.062" y="8.183" class="g">internal/clipboard/clipboard.go</text><text x="64.128" y="8.183" class="g">(modified)</text><text y="10.354" class="g">--------------------------|</text><text x="29.058" y="10.354" class="g">@@</text><text x="32.064" y="10.354" class="g">-18,7</text><text x="38.076" y="10.354" class="g">+18,14</text><text x="45.09" y="10.354" class="g">@@</text><text x="48.096" y="10.354" class="g">type</text><text x="53.106" y="10.354" class="g">candidate</text><text x="63.126" y="10.354" class="g">struct</text><text x="70.14" y="10.354" class="g">{</text><text y="12.525" class="g">*</text><text x="2.004" y="12.525" class="g">Unstaged</text><text x="11.022" y="12.525" class="g">changes</text><text x="20.04" y="12.525" class="g">2</text><text x="22.044" y="12.525" class="g">files|</text><text x="31.062" y="12.525" class="g">18</text><text x="37.074" y="12.525" class="g">18</text><text x="42.084" y="12.525" class="g">}</text><use xlink:href="#23" y="13.026"/><use xlink:href="#24" y="15.197"/><use xlink:href="#25" y="17.368"/><use xlink:href="#26" y="19.539"/><use xlink:href="#27" y="21.71"/><use xlink:href="#28" y="23.881"/><use xlink:href="#29" y="26.052"/><use xlink:href="#30" y="28.223"/><text x="26.052" y="32.064" class="g">|</text><text x="36.072" y="32.064" class="g">23</text><text x="39.078" y="32.064" class="g">+</text><text x="45.09" y="32.064" class="g">switch</text><text x="52.104" y="32.064" class="g">clipboardMode()</text><text x="68.136" y="32.064" class="g">{</text><text x="1.002" y="36.406" class="g">saved</text><text x="7.014" y="36.406" class="g">comment</text><text x="15.03" y="36.406" class="g">for</text><text x="19.038" y="36.406" class="g">internal/clipboard/clipboard.go:22</text></svg><svg x="1000"><use xlink:href="#a"/><text y="1.67" class="h">Press</text><text x="6.012" y="1.67" class="h">z</text><text x="8.016" y="1.67" class="h">for</text><text x="12.024" y="1.67" class="h">folded</text><text x="19.038" y="1.67" class="h">comment</text><text x="27.054" y="1.67" class="h">view.</text><text y="6.012" class="g">Only</text><text x="5.01" y="6.012" class="g">commented</text><text x="15.03" y="6.012" class="g">lines</text><text x="21.042" y="6.012" class="g">are</text><text x="25.05" y="6.012" class="g">shown,</text><text x="32.064" y="6.012" class="g">with</text><text x="37.074" y="6.012" class="g">three</text><text x="43.086" y="6.012" class="g">lines</text><text x="49.098" y="6.012" class="g">of</text><text x="52.104" y="6.012" class="g">context</text><text x="60.12" y="6.012" class="g">above</text><text x="66.132" y="6.012" class="g">each</text><text x="71.142" y="6.012" class="g">one,</text><text y="8.183" class="g">still</text><text x="6.012" y="8.183" class="g">grouped</text><text x="14.028" y="8.183" class="g">by</text><text x="17.034" y="8.183" class="g">file.</text><text x="1.002" y="12.525" class="g">diffnotes</text><text x="12.024" y="12.525" class="g">repo:diffnotes</text><text x="28.056" y="12.525" class="g">source:Unstaged</text><text x="44.088" y="12.525" class="g">changes</text><text x="53.106" y="12.525" class="g">comments:2</text><text x="65.13" y="12.525" class="g">folded</text><use xlink:href="#17" y="13.026"/><text y="16.867" class="g">--------------------------|</text><text x="30.06" y="16.867" class="g">71</text><text x="36.072" y="16.867" class="g">71</text><text x="41.082" y="16.867" class="g">-</text><text x="43.086" y="16.867" class="g">Linux</text><text x="49.098" y="16.867" class="g">X11:</text><text x="54.108" y="16.867" class="g">`xclip`</text><text x="62.124" y="16.867" class="g">or</text><text x="65.13" y="16.867" class="g">`xsel`</text><text y="19.038" class="g">*</text><text x="2.004" y="19.038" class="g">Unstaged</text><text x="11.022" y="19.038" class="g">changes</text><text x="20.04" y="19.038" class="g">2</text><text x="22.044" y="19.038" class="g">files|</text><text x="31.062" y="19.038" class="g">72</text><text x="37.074" y="19.038" class="g">72</text><text x="42.084" y="19.038" class="g">-</text><text x="44.088" y="19.038" class="g">Windows:</text><text x="53.106" y="19.038" class="g">`clip`</text><use xlink:href="#15" y="19.539"/><use xlink:href="#18" y="21.71"/><use xlink:href="#16" y="23.881"/><use xlink:href="#19" y="26.052"/><use xlink:href="#20" y="28.223"/><use xlink:href="#21" y="30.394"/><use xlink:href="#22" y="32.565"/><text x="26.052" y="36.406" class="g">|</text><text x="26.052" y="38.577" class="g">|</text><text x="31.062" y="38.577" class="g">internal/clipboard/clipboard.go</text><text x="64.128" y="38.577" class="g">(modified)</text><use xlink:href="#23" y="39.078"/><use xlink:href="#24" y="41.249"/><use xlink:href="#25" y="43.42"/><use xlink:href="#26" y="45.591"/><use xlink:href="#27" y="47.762"/><use xlink:href="#28" y="49.933"/><use xlink:href="#29" y="52.104"/><use xlink:href="#30" y="54.275"/><text x="1.002" y="60.287" class="g">showing</text><text x="9.018" y="60.287" class="g">comments</text><text x="18.036" y="60.287" class="g">with</text><text x="23.046" y="60.287" class="g">3</text><text x="25.05" y="60.287" class="g">lines</text><text x="31.062" y="60.287" class="g">of</text><text x="34.068" y="60.287" class="g">context</text><text x="42.084" y="60.287" class="g">|</text><text x="45.09" y="60.287" class="g">z</text><text x="47.094" y="60.287" class="g">full</text><text x="52.104" y="60.287" class="g">diff</text><text x="58.116" y="60.287" class="g">c</text><text x="60.12" y="60.287" class="g">copy</text></svg><svg x="1100"><use xlink:href="#a"/><use xlink:href="#31"/><use xlink:href="#32" y="4.342"/><use xlink:href="#33" y="6.513"/><use xlink:href="#34" y="8.684"/><use xlink:href="#35" y="13.026"/></svg><svg x="1200"><use xlink:href="#a"/><use xlink:href="#31"/><use xlink:href="#32" y="4.342"/><use xlink:href="#33" y="6.513"/><use xlink:href="#34" y="8.684"/><use xlink:href="#35" y="13.026"/><use xlink:href="#36" y="17.368"/><use xlink:href="#37" y="21.71"/><use xlink:href="#38" y="26.052"/><use xlink:href="#39" y="28.223"/><use xlink:href="#40" y="30.394"/><use xlink:href="#41" y="32.565"/><use xlink:href="#42" y="34.736"/><use xlink:href="#43" y="39.078"/><use xlink:href="#44" y="41.249"/><use xlink:href="#45" y="43.42"/><use xlink:href="#46" y="45.591"/></svg><svg x="1300"><use xlink:href="#a"/><use xlink:href="#32" y="2.171"/><use xlink:href="#33" y="4.342"/><use xlink:href="#34" y="6.513"/><use xlink:href="#35" y="10.855"/><use xlink:href="#36" y="15.197"/><use xlink:href="#37" y="19.539"/><use xlink:href="#38" y="23.881"/><use xlink:href="#39" y="26.052"/><use xlink:href="#40" y="28.223"/><use xlink:href="#41" y="30.394"/><use xlink:href="#42" y="32.565"/><use xlink:href="#43" y="36.907"/><use xlink:href="#44" y="39.078"/><use xlink:href="#45" y="41.249"/><use xlink:href="#46" y="43.42"/><text y="49.432" class="f">Done.</text><text y="53.774" class="g">Typical</text><text x="8.016" y="53.774" class="g">flow:</text><text x="2.004" y="55.945" class="g">1.</text><text x="5.01" y="55.945" class="g">Run</text><text x="9.018" y="55.945" class="g">`diffnotes</text><text x="20.04" y="55.945" class="g">--repo</text><text x="27.054" y="55.945" class="g">.`</text><text x="2.004" y="58.116" class="g">2.</text><text x="5.01" y="58.116" class="g">Pick</text><text x="10.02" y="58.116" class="g">`Unstaged</text><text x="20.04" y="58.116" class="g">changes`,</text><text x="30.06" y="58.116" class="g">`Staged</text><text x="38.076" y="58.116" class="g">changes`,</text><text x="48.096" y="58.116" class="g">`Untracked</text><text x="59.118" y="58.116" class="g">files`,</text><text x="67.134" y="58.116" class="g">or</text><text x="70.14" y="58.116" class="g">a</text><text x="72.144" y="58.116" class="g">commit.</text><text x="2.004" y="60.287" class="g">3.</text><text x="5.01" y="60.287" class="g">Press</text><text x="11.022" y="60.287" class="g">`a`</text><text x="15.03" y="60.287" class="g">or</text><text x="18.036" y="60.287" class="g">`enter`</text><text x="26.052" y="60.287" class="g">on</text><text x="29.058" y="60.287" class="g">a</text><text x="31.062" y="60.287" class="g">changed</text><text x="39.078" y="60.287" class="g">line</text><text x="44.088" y="60.287" class="g">to</text><text x="47.094" y="60.287" class="g">leave</text><text x="53.106" y="60.287" class="g">an</text><text x="56.112" y="60.287" class="g">inline</text><text x="63.126" y="60.287" class="g">comment.</text><text x="2.004" y="62.458" class="g">4.</text><text x="5.01" y="62.458" class="g">Press</text><text x="11.022" y="62.458" class="g">`z`</text><text x="15.03" y="62.458" class="g">to</text><text x="18.036" y="62.458" class="g">review</text><text x="25.05" y="62.458" class="g">only</text><text x="30.06" y="62.458" class="g">comments</text><text x="39.078" y="62.458" class="g">with</text><text x="44.088" y="62.458" class="g">context.</text><text x="2.004" y="64.629" class="g">5.</text><text x="5.01" y="64.629" class="g">Press</text><text x="11.022" y="64.629" class="g">`c`</text><text x="15.03" y="64.629" class="g">to</text><text x="18.036" y="64.629" class="g">copy</text><text x="23.046" y="64.629" class="g">the</text><text x="27.054" y="64.629" class="g">agent-ready</text><text x="39.078" y="64.629" class="g">review</text><text x="46.092" y="64.629" class="g">text.</text></svg></svg></g></g></svg></svg>